<svg width="120" height="157" viewBox="0 0 120 157" fill="none" xmlns="http://www.w3.org/2000/svg">
<path d="M115.946 31.9907C114.171 30.9317 112.186 30.5833 110.147 30.4581C106.456 30.2294 102.972 31.0896 99.5692 32.4153C99.1826 32.565 98.7362 32.8345 98.3714 32.4806C97.9441 32.0669 98.4177 31.7157 98.581 31.3564C98.8233 30.8256 99.1282 30.3165 99.3269 29.7694C100.081 27.7033 99.5773 25.7733 98.1128 24.9648C96.5068 24.0801 93.7302 24.8151 92.5297 26.4756C93.4335 26.2932 94.2991 26.0727 95.1784 25.953C95.9923 25.8441 96.847 25.9067 97.288 26.7233C97.7535 27.5862 97.612 28.49 97.0403 29.2794C96.7 29.7503 96.2999 30.1859 95.8916 30.6024C93.1313 33.4143 89.5898 32.9951 86.1436 32.9162C85.8714 32.9107 85.542 32.6685 85.3487 32.4425C84.3279 31.2584 83.5903 29.9109 83.3289 28.3566C83.0975 26.9683 84.1183 26.5736 85.1446 26.4402C86.2307 26.3014 86.8405 26.9003 86.7561 28.0626C86.6826 29.0916 86.865 30.077 87.3168 30.9998C87.5019 31.3755 87.7361 31.8682 88.177 31.8464C88.6806 31.8246 88.7079 31.2285 88.7977 30.8555C89.0699 29.7231 89.2741 28.5744 89.4728 27.4256C89.5163 27.1834 89.5245 26.8322 89.3857 26.6825C89.2006 26.4865 88.8739 26.6117 88.6779 26.8104C87.9838 27.5127 87.6 27.1099 87.2107 26.462C86.9385 26.0074 86.6254 25.561 86.247 25.1935C85.1555 24.1264 83.8761 24.2979 82.7409 24.9948C81.6929 25.6372 80.83 26.4375 81.3908 28.0027C82.1176 30.0307 83.0458 31.9035 84.4259 33.5586C84.7526 33.9533 85.3569 34.3426 85.1419 34.887C84.9078 35.475 84.2054 35.23 83.7073 35.2327C79.7901 35.2599 75.873 35.2817 71.9531 35.298C71.4577 35.298 70.9269 35.2926 70.5131 35.0177C69.9769 34.6583 69.8026 33.9615 69.6693 33.3272C69.5223 32.6195 69.3834 31.8382 69.7319 31.204C70.2137 30.3274 71.1093 30.3764 71.9096 30.0334C72.5438 29.7639 73.2325 29.1188 73.7116 28.6234C74.1499 28.1742 74.5092 27.6298 74.6426 27.0173C74.8114 26.2578 74.5773 25.4902 73.8913 25.0792C73.2325 24.6844 72.3914 24.7552 71.7462 24.317C71.3134 24.023 71.0303 23.5166 71.0113 22.994C70.9514 21.4778 72.8923 20.7265 74.1472 20.8517C75.9193 21.0259 78.3719 22.9722 79.0661 20.2338C79.5288 18.4099 78.9926 16.5099 77.8112 15.0753C76.3031 13.2433 73.8804 12.2307 71.5149 12.5056C71.1637 12.5464 70.8507 12.5682 70.5567 12.6689C70.0204 12.8541 69.6039 13.3576 69.1956 13.7306L67.6168 15.1815C66.615 16.1016 65.6351 17.0489 64.6115 17.9444C64.323 18.2085 63.9555 18.4943 63.5826 18.3745C63.1198 18.2248 63.0599 17.6015 63.1116 17.1196C63.3593 14.8848 64.2032 12.7179 65.5316 10.905C65.831 10.4967 66.174 10.0911 66.645 9.90326C67.4153 9.59566 68.0142 10.1319 68.4007 10.7471C68.692 11.2153 68.9588 11.6454 69.3589 12.0292C69.5331 12.198 70.2273 12.7642 70.4723 12.7043C70.6764 12.6553 70.7744 12.1136 70.9051 11.9231C71.0929 11.6509 71.3461 11.4222 71.6047 11.2235C71.9722 10.9404 72.6418 10.6301 72.865 10.2109C73.1046 9.76171 72.6636 9.44594 72.2798 9.23633C71.3815 8.74635 70.4097 8.93146 69.4678 9.08117C67.8264 9.3425 67.761 9.27717 68.3272 7.69833C68.8227 6.31821 68.5015 5.5179 67.4317 5.72206C65.8882 6.01877 65.009 5.29196 64.2713 4.13778C63.6724 3.19864 63.0708 2.25951 62.4719 1.31765C61.4947 -0.220358 60.5501 -0.457184 59.856 0.846718V9.14378C59.8696 8.36525 59.9131 7.59217 59.9921 6.83813C60.0737 6.05144 60.1908 5.2593 60.4058 4.49438C60.4875 4.20311 60.5801 3.91456 60.708 3.63963C60.7488 3.55252 61.0619 3.13059 61.0455 3.06526C62.0228 7.51595 61.5709 11.7108 61.051 16.1696C60.2616 15.108 60.0901 13.4475 59.9676 12.1762C59.905 11.5311 59.8696 10.8751 59.8532 10.2136V18.9435C60.3759 18.6876 60.9421 18.5488 61.4484 18.5896C62.1398 18.644 62.8476 18.8427 63.3947 19.281C64.0263 19.7846 64.2114 20.4815 64.3611 21.2437C64.7014 22.9831 64.4972 24.8287 63.7731 26.4457C63.6615 26.6988 63.5036 26.9166 63.343 27.1425C62.8313 27.8367 62.1779 28.4519 61.3858 28.8058C60.9666 28.9936 60.5528 29.0562 60.1064 29.1161C59.8478 29.1515 59.8696 29.1188 59.8532 29.3747C59.8451 29.5053 59.8532 29.636 59.8532 29.7667C60.3568 30.0144 60.8359 30.3274 61.345 30.567C62.1671 30.9535 63.2287 31.1168 63.9201 30.5261C64.4918 30.0362 64.7122 29.1025 65.4091 28.8711C65.4363 28.8629 65.4608 28.8548 65.4881 28.8493C66.1468 28.6887 66.7457 29.2658 67.1377 29.8211C67.7229 30.6541 68.1911 31.5714 68.5178 32.5351C68.7601 33.2456 68.9043 34.0921 68.4525 34.691C67.9788 35.3144 67.0832 35.377 66.302 35.3852C64.6388 35.4042 62.9755 35.4233 61.3096 35.4396C60.8278 35.445 60.3378 35.4478 59.8532 35.426V36.934C65.5779 36.9123 71.3053 36.8823 77.0299 36.8605C82.4007 36.8415 87.7769 37.0212 93.1422 36.5285C94.2855 36.4223 95.7364 35.6056 96.5095 36.3869C97.2935 37.1763 96.2291 38.5483 96.2128 39.6888C96.1229 46.6602 95.9351 53.6316 95.9732 60.603C96.0304 71.4126 95.8017 82.214 95.505 93.0155C95.2464 102.459 90.1642 108.883 82.3408 113.472C78.8701 115.508 75.1407 116.671 71.4441 118.176C67.9325 119.605 64.6605 121.622 61.805 124.116C61.0973 124.734 60.5365 124.954 59.8532 124.489V126.993C60.2343 127.181 60.5882 127.056 61.1163 126.555C65.6378 122.273 70.8507 119.624 77.2912 119.948C79.0198 120.035 80.7892 120.528 82.417 121.078C83.9686 121.601 86.5737 122.409 87.2379 124.059C87.5265 124.777 87.4829 125.589 87.1726 126.291C86.8214 127.091 86.0647 127.407 85.5257 128.057C85.1609 128.496 84.9078 129.054 84.9513 129.623C84.9894 130.156 85.2861 130.646 85.6672 131.022C86.6799 132.024 88.3295 132.851 89.7423 133.028C91.6505 133.268 93.9834 132.729 95.1158 131.065C95.9896 129.781 96.1638 128.101 95.799 126.593C95.0205 123.367 92.5733 121.391 89.4673 120.583C87.5673 120.087 85.67 119.57 83.7726 119.061C86.9031 118.522 89.6579 119.72 92.3827 120.836C95.6384 122.172 98.9649 122.439 102.438 122.521C105.302 122.589 108.073 121.445 109.908 119.186C110.692 118.22 111.465 116.38 110.213 115.481C108.852 114.507 106.758 114.49 105.182 114.741C103.2 115.057 101.333 115.854 99.414 116.439C92.8591 118.44 85.836 117.923 79.0007 117.387C85.9095 114.259 91.7294 108.777 95.2655 102.067C95.6411 101.356 96.1583 100.523 96.9614 100.542C97.6174 100.558 98.0938 101.155 98.4395 101.713C98.9131 102.472 99.3378 103.297 99.4031 104.19C99.5066 105.638 98.6491 106.972 97.7181 108.085C96.7872 109.199 95.7174 110.266 95.2546 111.64C94.7891 113.015 95.1893 114.828 96.5313 115.378C99.0465 116.407 101.388 113.38 102.044 111.354C102.539 109.825 102.547 108.131 102.057 106.599C101.858 105.978 101.586 105.382 101.246 104.83C101.197 104.751 100.217 103.251 100.467 103.218C101.064 103.142 101.85 103.727 102.291 104.07C102.83 104.492 103.288 105.015 103.639 105.603C104.314 106.738 104.578 108.115 104.352 109.403C104.11 110.794 103.407 111.986 102.92 113.271C102.74 113.742 102.215 114.33 102.694 114.719C103.192 115.125 103.786 114.607 104.27 114.316C104.534 114.156 104.747 113.897 104.959 113.66C106.029 112.465 106.647 110.911 107.009 109.367C107.491 107.318 107.564 105.151 107.254 103.068C106.911 100.757 105.827 98.702 104.289 96.9435C103.696 96.2657 103.037 95.6423 102.324 95.0897C101.627 94.5507 100.805 94.137 100.263 93.4238C99.7216 92.7133 99.5283 91.7851 99.5501 90.8922C99.5773 89.7843 99.8414 88.5757 100.108 87.5059C100.41 86.2863 100.821 85.0968 101.235 83.9099C101.796 82.2984 102.485 80.5236 102.422 78.7814C101.913 79.4157 101.608 80.186 101.309 80.9346C101.006 81.6832 100.636 82.41 100.288 83.1423C100.187 83.3546 99.9258 83.8963 99.61 83.8337C99.3514 83.782 99.2888 83.3056 99.2398 83.1042C98.9295 81.8003 98.9621 80.3548 99.0084 79.0237C99.0656 77.3822 99.365 75.7245 99.8468 74.1783C100.59 71.7883 101.69 69.4989 103.108 67.4356C103.296 67.1606 103.538 66.9782 103.13 66.9292C102.917 66.902 102.607 67.0327 102.408 67.098C101.929 67.2586 101.483 67.5118 101.091 67.833C100.326 68.4591 99.7679 69.3411 99.5365 70.3047C99.2044 71.6848 98.8151 72.9969 98.2898 74.3144C98.1618 74.6383 98.1373 75.0412 97.9332 75.3298C97.5276 75.9068 97.5657 75.1474 97.5657 74.8234C97.5657 73.8489 97.5657 72.8771 97.5657 71.9026C97.5684 66.2433 97.6746 60.584 97.6229 54.9246C97.6065 52.5809 97.533 50.2453 97.7862 47.9097C98.287 43.2984 100.048 39.3921 104.058 36.7898C106.353 35.3008 108.835 34.3861 111.574 35.445C112.679 35.8724 113.961 36.7462 113.36 38.0202C112.758 39.2969 111.476 38.4231 110.594 37.9222C109.167 37.1083 108.005 37.5329 107.022 38.5891C106.012 39.6752 106.208 40.9492 106.851 42.1442C107.834 43.9708 112.87 46.3499 115.51 45.2366C118.27 44.0742 119.588 42.0544 119.705 39.2179C119.833 36.1283 118.657 33.6049 115.926 31.9743L115.946 31.9907ZM63.4437 11.0956C63.4519 10.4912 63.4682 9.8842 63.4682 9.27989C63.4818 8.36525 63.3022 7.21923 63.6588 6.36448C63.7758 6.08683 64.0235 5.84183 64.3257 5.82278C64.6061 5.80645 64.8674 5.98883 65.0171 6.22565C65.1668 6.46248 65.224 6.74558 65.2594 7.02324C65.5207 9.0349 64.832 11.2589 63.3757 12.6934C63.3702 12.6989 63.3675 12.7016 63.3621 12.7071C63.5417 12.247 63.4356 11.5883 63.441 11.0983L63.4437 11.0956ZM65.7657 23.5003C65.7358 23.1845 65.7085 22.8661 65.6868 22.5476C65.5861 21.1865 65.2948 19.3545 65.8664 18.086C66.4272 16.8447 67.3718 15.7776 68.545 15.0808C70.6901 13.8095 73.8151 13.7959 75.9166 15.1706C77.3511 16.1097 78.1759 17.3837 78.0453 19.1694C78.0099 19.6539 78.018 20.1929 77.5199 20.4161C77.0027 20.6448 76.6053 20.2528 76.2732 19.9125C75.3258 18.9407 74.1036 18.1159 72.699 18.0697C71.2944 18.0234 69.7809 18.7311 68.8689 19.7819C66.8382 22.1256 68.0441 26.3504 71.5067 26.1762C71.7462 26.1653 71.9912 26.1272 72.2199 26.1898C73.189 26.4484 72.2879 27.4501 71.8932 27.7986C71.357 28.2722 70.6764 28.588 69.966 28.6669C66.841 29.0181 65.9916 25.9393 65.763 23.4949L65.7657 23.5003ZM89.3584 121.01C91.0353 122.363 92.7203 123.561 93.575 125.618C94.4107 127.633 94.2719 130.622 91.8955 131.468C90.4963 131.966 88.7786 131.653 87.4938 130.981C86.9766 130.712 86.4485 130.284 86.424 129.702C86.4049 129.228 86.7316 128.809 87.1045 128.52C87.8912 127.91 88.9665 127.693 89.9301 127.946C90.4909 128.093 91.0435 128.392 91.6151 128.297C94.8871 127.753 90.5807 121.995 89.3584 121.01ZM103.271 117.858C104.112 117.474 105.038 117.275 105.963 117.291C106.326 117.297 106.688 117.338 107.041 117.414C107.774 117.569 108.59 118.005 108.65 118.751C108.68 119.134 108.49 119.51 108.212 119.777C107.937 120.044 107.583 120.215 107.227 120.359C105.893 120.89 104.412 121.048 102.996 120.811C102.604 120.746 102.21 120.648 101.875 120.433C100.32 119.439 102.321 118.296 103.271 117.86V117.858ZM99.1037 111.063C99.0983 111.129 99.0901 111.197 99.0792 111.262C98.9866 111.853 98.7335 112.416 98.3524 112.876C98.1727 113.091 97.9604 113.29 97.7018 113.396C97.4432 113.502 97.1301 113.505 96.8933 113.353C95.897 112.705 97.612 110.973 98.1319 110.56C98.3415 110.394 98.6246 110.238 98.8614 110.364C99.0928 110.486 99.1282 110.802 99.1037 111.06V111.063ZM98.709 95.9118C100.193 95.92 101.57 96.6931 102.455 97.8663C102.907 98.4679 103.23 99.162 103.402 99.8943C103.522 100.414 103.851 101.596 103.22 101.887C102.904 102.031 102.539 101.963 102.199 101.892C101.126 101.669 99.9476 101.378 99.3215 100.48C99.0438 100.079 98.8151 99.5295 98.3306 99.486C98.0339 99.4587 97.7644 99.6466 97.4758 99.7173C96.6402 99.9188 96.0658 99.094 96.1121 98.3318C96.1447 97.8119 96.2291 97.1095 96.5231 96.6713C96.9913 95.9744 97.9441 95.9118 98.7063 95.9173L98.709 95.9118ZM117.669 41.5399C116.789 43.9653 113.199 44.8391 111.299 43.0779C110.82 42.6342 110.482 42.1115 110.591 41.3956C110.708 40.647 111.337 40.5708 111.876 40.3912C112.276 40.2578 112.703 40.2061 113.109 40.0863C115.183 39.4792 115.741 37.797 114.435 36.0548C113.289 34.5277 111.636 34.0431 109.829 33.9261C104.981 33.6158 101.475 35.8071 98.9485 39.795C98.3034 40.8158 97.7208 41.8747 97.1084 42.9173C97.5194 39.5745 99.1663 36.9313 101.731 34.9033C105.689 31.7729 111.174 31.2148 114.832 33.4715C117.522 35.1293 118.736 38.5864 117.666 41.5372L117.669 41.5399Z" fill="black"/>
<path d="M80.5597 134.933C80.4127 133.368 79.362 132.222 78.0064 132.124C75.8232 131.966 74.3941 130.61 74.4268 128.727C74.4649 126.557 75.2488 125.847 77.7995 125.694C78.0635 125.678 78.3657 125.73 78.5018 125.457C78.6597 125.136 78.48 124.826 78.3085 124.562C78.0173 124.104 77.5354 124.066 77.0427 124.042C75.3414 123.96 73.6346 123.936 71.9442 123.756C69.5487 123.5 67.537 124.295 65.8003 125.836C64.4501 127.036 63.1462 128.297 61.9213 129.622C61.1727 130.433 60.6446 130.608 59.877 129.775V137.173C60.3288 137.454 60.8814 137.593 61.4286 137.514C62.4603 137.367 62.7651 136.76 62.6481 135.84C61.9294 135.736 61.0203 137.32 60.925 135.785C60.8243 134.157 61.6872 132.589 63.1081 131.19C63.4593 132.807 63.3994 134.277 64.2133 135.507C64.7169 136.272 65.8303 136.95 64.5754 138.031C63.7914 138.706 63.2987 139.743 62.0166 139.697C61.3088 139.672 60.5793 139.738 59.8797 139.697V151.595C60.4241 149.254 60.0022 146.853 60.1709 144.491C60.1982 144.096 60.024 143.492 60.6119 143.47C61.1972 143.448 61.0937 144.06 61.1373 144.458C61.3469 146.412 61.5402 148.367 61.7416 150.321C61.7852 151.465 61.5701 152.548 61.0475 153.561C60.9032 153.838 60.7018 154.162 60.3506 154.143C60.1111 154.13 59.9722 153.969 59.8797 153.773V156.294C60.6555 157.238 61.4177 157.225 62.3541 156.272C63.247 155.363 63.8458 154.192 63.8785 153.011C63.9275 151.157 64.8639 150.828 66.3965 150.855C67.9181 150.882 68.9825 150.036 69.7256 148.759C69.908 148.446 70.1693 148.065 69.6957 147.798C67.2158 146.401 65.9691 143.837 64.0827 141.883C63.6526 141.436 63.4538 140.933 63.7533 140.29C65.2641 137.054 65.705 136.98 68.1114 139.61C71.2636 143.053 75.2243 143.159 78.5889 139.917C80.0153 138.543 80.7584 136.923 80.5706 134.925L80.5597 134.933ZM65.8466 148.171C65.98 148.478 66.0235 148.89 65.5907 148.914C64.9156 148.952 64.7414 149.665 64.0745 149.886C63.56 147.39 63.1081 144.942 62.9121 142.457C63.051 142.43 63.1898 142.405 63.3286 142.378C64.1698 144.308 65.0109 146.238 65.8439 148.174L65.8466 148.171ZM78.9591 136.986C77.0373 140.451 73.3787 142.193 69.7311 139.046C67.665 137.263 66.0535 135.203 65.8793 132.336C65.5417 126.827 68.7511 124.363 74.0348 126.059C73.6137 126.496 72.6909 126.785 71.2664 126.925C71.1548 127.325 71.5277 127.474 71.7046 127.7C72.132 128.25 72.7445 128.898 72.2273 129.5C71.6856 130.131 70.8553 129.63 70.153 129.434C69.6848 129.304 69.4425 128.373 68.8491 128.904C68.253 129.437 68.4952 130.224 68.7892 130.844C69.5433 132.44 70.3844 133.969 72.2599 134.555C72.6547 134.677 73.357 134.83 73.0739 135.464C72.7744 136.134 72.0912 135.992 71.5331 135.763C70.6158 135.388 70.2973 134.356 69.4997 133.744C69.5786 135.976 70.9424 137.062 72.9187 136.52C74.5329 136.079 76.0655 135.48 76.8359 133.817C77.1979 133.036 77.6389 133.175 78.2078 133.591C79.2858 134.381 79.675 135.701 78.9591 136.988V136.986Z" fill="black"/>
<path d="M107.73 65.7312C107.893 65.9354 108.353 65.8837 108.56 65.8864C110.634 65.8919 112.7 66.1423 114.151 67.7865C115.341 69.1339 115.635 71.0231 114.9 72.6645C114.244 74.1345 113.136 74.8368 111.535 74.8831C109.464 74.943 107.395 75.0845 105.326 75.1498C104.153 75.1852 103.309 76.1244 103.674 77.4419C103.788 77.8529 104.183 78.1224 104.49 78.4164C104.942 78.8438 105.394 79.2711 105.843 79.7012C106.219 80.0578 106.6 80.4172 107.055 80.6676C107.509 80.918 108.051 81.046 108.549 80.9071C109.047 80.7683 109.477 80.3192 109.483 79.802C109.491 79.2276 109.02 78.7621 108.524 78.4708C108.029 78.1796 107.468 77.9836 107.063 77.5807C106.657 77.1778 106.475 76.4537 106.872 76.0427C107.251 75.6534 107.896 75.7596 108.416 75.9202C109.129 76.1434 109.837 76.4211 110.438 76.8675C111.04 77.3139 111.527 77.9455 111.677 78.6777C112.082 80.6377 110.011 82.2737 108.19 82.2328C105.631 82.1757 103.347 79.3392 102.462 77.1615C101.997 76.0155 102.511 75.0682 102.977 74.0011C103.118 73.6799 103.268 73.3559 103.502 73.0919C103.736 72.8278 104.063 72.6319 104.414 72.6319C104.765 72.6319 105.125 72.8714 105.19 73.2171C105.119 72.8442 104.754 72.4794 104.675 72.0602C104.455 70.8788 105.263 69.7954 105.917 68.8971C106.164 68.5595 106.657 68.0941 106.668 67.6449C106.679 67.1958 106.2 67.0188 105.83 66.8773C104.24 66.2675 102.813 65.1814 101.537 64.0762C100.756 63.3984 100.078 62.6035 99.5306 61.727C99.2583 61.2887 98.9426 60.7933 98.7929 60.2979C98.6595 59.8569 98.8446 59.5711 99.2475 59.944C99.9716 60.6136 100.682 61.2996 101.422 61.9502C102.909 63.2596 104.501 64.4573 106.306 65.293C106.505 64.539 106.075 64.1415 105.699 63.7278C104.591 62.5082 103.475 61.2969 102.37 60.0747C99.977 57.426 99.5306 53.6041 101.273 50.7867C102.999 47.9993 106.703 46.6191 110.079 47.5066C113.109 48.3041 115.235 51.342 115.458 54.8373C115.621 57.407 114.976 59.5275 112.986 61.2316C112.044 62.0373 111.2 62.9519 110.253 63.7523C109.782 64.1524 109.284 64.5253 108.748 64.8357C108.497 64.9799 107.7 65.1923 107.667 65.5053C107.656 65.606 107.681 65.6795 107.724 65.7367L107.73 65.7312ZM114.301 55.496C114.312 53.2312 112.542 50.7132 110.8 49.687C109.121 48.6961 106.962 48.5192 105.187 49.3277C101.556 50.9855 100.497 56.9442 104.384 58.9722C106.197 59.9168 109.317 59.8923 111.233 59.2825C112.33 58.9341 113.34 58.2209 113.884 57.2055C114.167 56.6747 114.295 56.0949 114.298 55.496H114.301ZM110.702 72.6019C112.02 72.6482 113.337 72.1936 113.528 70.759C113.634 69.9587 113.207 69.1639 112.608 68.6222C110.983 67.1522 108.519 67.4925 107.12 69.0931C106.861 69.3898 106.633 69.7546 106.652 70.1466C106.698 71.1456 107.966 71.8207 108.756 72.1718C109.292 72.4086 109.997 72.5774 110.702 72.6019Z" fill="black"/>
<path d="M101.275 87.7319C102.963 89.4197 104.653 91.1101 106.344 92.7978C107.566 94.0201 108.859 95.0191 110.729 95.1008C111.72 95.1443 112.882 95.4601 113.057 96.6633C113.217 97.7548 112.387 98.517 111.565 99.1322C110.631 99.8264 109.521 99.9951 108.394 99.9924C107.378 99.9924 106.883 99.1731 106.94 98.4136C107.008 97.4962 107.846 98.1468 108.35 98.1087C108.614 98.0897 108.913 98.155 109.134 98.0488C109.668 97.7957 110.637 97.8991 110.547 97.0634C110.481 96.4455 109.665 96.6796 109.172 96.6333C108.407 96.5625 107.664 96.342 107.101 95.8793C104.446 93.7043 102.459 91.0094 101.272 87.7319H101.275Z" fill="black"/>
<path d="M71.9905 146.731C70.4498 146.723 69.203 146.454 68.3537 145.223C68.0924 144.845 67.91 144.434 68.1632 144.055C68.3918 143.712 68.8356 143.862 69.1976 143.914C70.0333 144.034 70.8663 144.148 71.6992 144.276C72.6765 144.428 73.583 144.344 74.3805 143.661C74.6909 143.394 75.0883 143.046 75.5102 143.337C75.973 143.655 75.8396 144.216 75.7117 144.652C75.3333 145.942 74.2308 146.358 73.0794 146.647C72.6765 146.748 72.2382 146.712 71.9878 146.729L71.9905 146.731Z" fill="black"/>
<path d="M92.431 41.0172C92.431 39.8739 92.1805 39.4492 90.9311 39.4574C80.9789 39.5091 71.0295 39.4873 61.0774 39.4873V39.471C60.6773 39.471 60.2771 39.471 59.877 39.471V120.201C60.3969 120.318 60.9114 120.199 61.4748 119.883C63.2333 118.897 65 117.917 66.8266 117.065C71.4896 114.888 76.2669 112.939 80.851 110.609C86.807 107.582 90.7541 102.848 91.9328 96.0968C92.3466 93.7313 92.4282 91.3358 92.4282 88.9376C92.4228 72.9641 92.4092 56.9934 92.4364 41.0199L92.431 41.0172ZM61.3551 42.6532C61.3469 41.156 61.8315 40.9437 63.1571 40.9518C71.8326 41.0008 80.508 40.9954 89.1807 40.9273C90.4683 40.9165 90.8031 41.303 90.7895 42.5416C90.7323 48.0784 90.765 53.6152 90.765 59.152C90.7541 59.152 90.7432 59.152 90.7323 59.152C90.7323 64.6889 90.7106 70.2257 90.7514 75.7625C90.7596 76.7425 90.618 77.1753 89.4747 77.1644C80.6414 77.0909 71.8053 77.0555 62.972 77.1018C61.5865 77.11 61.336 76.6771 61.3415 75.395C61.3986 64.482 61.4204 53.5662 61.3524 42.6532H61.3551ZM90.8439 79.4156C90.6616 84.9361 91.078 90.4702 90.2614 95.9798C89.3359 102.211 85.397 106.12 80.2793 109.002C75.5156 111.687 70.3109 113.472 65.3866 115.846C64.3385 116.352 63.3341 116.943 62.2997 117.479C62.0329 117.615 61.6953 117.825 61.4585 117.757C61.0829 117.651 61.2544 117.24 61.2544 116.929C61.2625 110.707 61.2598 104.484 61.2598 98.2609C61.2516 92.0899 61.5456 85.9188 61.1264 79.7531C61.0774 79.0372 60.9985 78.5091 62.1581 78.52C71.3562 78.6126 80.557 78.6099 89.7578 78.5935C90.4574 78.5935 90.8739 78.5717 90.8439 79.421V79.4156Z" fill="black"/>
<path d="M107.512 51.672C108.239 51.4732 109.02 51.5549 109.676 52.083C110.443 52.7009 110.762 53.7979 110.501 54.7398C110.212 55.7769 108.965 56.354 107.969 56.403C107.272 56.4384 106.554 56.2696 105.998 55.845C104.199 54.4703 105.68 52.1756 107.514 51.672H107.512ZM108.296 55.1645C108.418 55.1726 108.541 55.1617 108.655 55.1236C109.499 54.8623 109.338 53.9096 108.797 53.4305C108.5 53.1664 107.757 52.8506 107.4 53.1582C107.308 53.2372 107.253 53.357 107.229 53.4767C107.171 53.7435 107.19 54.0538 107.278 54.3124C107.37 54.5928 107.555 54.846 107.806 55.0011C107.953 55.0937 108.124 55.1481 108.296 55.1617V55.1645Z" fill="black"/>
<path d="M52.5901 29.8346C52.9794 29.2793 53.5783 28.7049 54.237 28.8628C54.2642 28.8682 54.2915 28.8764 54.316 28.8846C55.0128 29.1159 55.2333 30.0469 55.805 30.5396C56.4937 31.133 57.558 30.9697 58.3801 30.5804C58.8891 30.3409 59.3682 30.0278 59.8718 29.7801C59.8718 29.5814 59.9127 29.3283 59.8501 29.1432C58.9381 29.2275 58.2059 28.9281 57.4845 28.3646C56.8094 27.8393 56.2677 27.1424 55.8975 26.372C55.2496 25.0191 55.1054 23.4702 55.2415 21.9785C55.3204 21.0911 55.5219 20.1628 56.1262 19.5068C56.578 19.0168 57.2259 18.731 57.8874 18.6521C58.3583 18.5949 58.8401 18.6412 59.3002 18.7555C59.4363 18.7909 59.7711 18.9597 59.8691 18.8725C59.9589 18.7936 59.8773 18.4098 59.8773 18.2982V10.2216C59.8637 10.8831 59.8256 11.5418 59.7629 12.1843C59.6404 13.4555 59.469 15.1133 58.6795 16.1776C58.1569 11.7188 57.705 7.52397 58.685 3.07328C58.6714 3.13861 58.9844 3.56054 59.0225 3.64765C59.1477 3.92258 59.243 4.21113 59.3247 4.5024C59.5397 5.2646 59.6568 6.05674 59.7412 6.84615C59.8201 7.60019 59.8637 8.37599 59.8773 9.1518V0.85746C59.1831 -0.446442 58.2386 -0.209616 57.2613 1.32839C56.6624 2.27025 56.0636 3.20938 55.462 4.14852C54.7243 5.3027 53.8477 6.02952 52.3016 5.7328C51.2345 5.52864 50.9133 6.32895 51.406 7.70907C51.9722 9.28791 51.9069 9.35052 50.2654 9.09192C49.3236 8.9422 48.3518 8.75709 47.4535 9.24708C47.0724 9.45396 46.6287 9.77245 46.8682 10.2216C47.0914 10.6408 47.7611 10.9511 48.1285 11.2342C48.3899 11.4357 48.643 11.6616 48.8281 11.9338C48.9615 12.1271 49.0595 12.6661 49.261 12.7151C49.5059 12.775 50.2001 12.2088 50.3743 12.04C50.7745 11.6562 51.0412 11.2233 51.3325 10.7579C51.7163 10.1427 52.3179 9.6064 53.0883 9.914C53.5592 10.1018 53.9022 10.5074 54.2016 10.9157C55.5328 12.7287 56.3766 14.8955 56.6216 17.1304C56.676 17.6122 56.6134 18.2356 56.1507 18.3853C55.7777 18.5051 55.4103 18.2192 55.1217 17.9552C54.0982 17.0596 53.1182 16.1123 52.1165 15.1922L50.5376 13.7413C50.132 13.3684 49.7155 12.8648 49.1766 12.6797C48.8826 12.579 48.5695 12.5572 48.2184 12.5164C45.8556 12.2414 43.4329 13.2513 41.9221 15.0861C40.7407 16.5206 40.2044 18.4234 40.6672 20.2445C41.3613 22.983 43.8167 21.0394 45.5861 20.8624C46.841 20.7372 48.7791 21.4912 48.722 23.0047C48.7029 23.5274 48.4198 24.0337 47.987 24.3277C47.3418 24.7632 46.5007 24.6952 45.8419 25.0899C45.156 25.5009 44.9246 26.2686 45.0906 27.0281C45.2268 27.6405 45.5861 28.185 46.0216 28.6341C46.5007 29.1268 47.1921 29.772 47.8237 30.0442C48.624 30.3872 49.5196 30.3382 50.0014 31.2147C50.3498 31.849 50.211 32.6302 50.064 33.338C49.9306 33.9722 49.7591 34.6691 49.2201 35.0284C48.8064 35.3061 48.2783 35.3115 47.7801 35.3088C43.863 35.2897 39.9458 35.2707 36.0259 35.2435C35.5278 35.2407 34.8228 35.483 34.5914 34.8977C34.3763 34.356 34.9806 33.9641 35.3073 33.5693C36.6847 31.9143 37.6157 30.0415 38.3425 28.0135C38.9032 26.4482 38.0403 25.6452 36.9923 25.0055C35.8544 24.3086 34.5778 24.1371 33.4862 25.2042C33.1105 25.5717 32.7975 26.0209 32.5226 26.4727C32.1333 27.1206 31.7495 27.5235 31.0553 26.8212C30.8593 26.6225 30.5327 26.4972 30.3476 26.6932C30.2087 26.8402 30.2196 27.1914 30.2605 27.4364C30.4619 28.5851 30.6633 29.7339 30.9356 30.8663C31.0254 31.2392 31.0526 31.8353 31.5562 31.8571C31.9972 31.8762 32.234 31.3862 32.4164 31.0105C32.8683 30.0877 33.0506 29.1023 32.9771 28.0734C32.8928 26.911 33.4998 26.3094 34.5886 26.451C35.6149 26.5816 36.6357 26.9791 36.4043 28.3673C36.1457 29.9244 35.408 31.2691 34.3845 32.4533C34.1912 32.6792 33.8618 32.9188 33.5896 32.9269C30.1434 33.0031 26.6019 33.4251 23.8417 30.6131C23.4333 30.1966 23.0359 29.7611 22.6929 29.2901C22.1213 28.5007 21.9797 27.597 22.4452 26.7341C22.8862 25.9147 23.7437 25.8548 24.5549 25.9637C25.4341 26.0808 26.2998 26.304 27.2035 26.4864C26.003 24.8258 23.2265 24.0882 21.6204 24.9756C20.1559 25.784 19.6523 27.714 20.4063 29.7801C20.605 30.3273 20.9099 30.8363 21.1522 31.3671C21.3155 31.7265 21.7892 32.0776 21.3618 32.4914C20.997 32.8453 20.5506 32.5785 20.1641 32.426C16.7614 31.1004 13.2771 30.2402 9.58585 30.4688C7.5497 30.5941 5.56526 30.9425 3.78771 32.0014C1.05741 33.632 -0.118554 36.1554 0.00938585 39.245C0.126438 42.0815 1.44395 44.1013 4.2042 45.2636C6.84739 46.377 11.8806 43.9951 12.8633 42.1713C13.5057 40.9763 13.7044 39.705 12.6918 38.6162C11.7064 37.5573 10.5468 37.1353 9.12037 37.9493C8.24112 38.4501 6.95899 39.3212 6.35468 38.0473C5.75309 36.7733 7.03521 35.8995 8.1404 35.4721C10.8816 34.4132 13.3615 35.3278 15.6562 36.8169C19.6659 39.4192 21.4271 43.3255 21.928 47.9368C22.1812 50.2724 22.1077 52.608 22.0913 54.9517C22.0396 60.611 22.1431 66.2703 22.1485 71.9297C22.1485 72.9042 22.1485 73.876 22.1485 74.8505C22.1485 75.1744 22.1866 75.9339 21.781 75.3568C21.5769 75.0683 21.5551 74.6627 21.4244 74.3415C20.899 73.0239 20.5098 71.7092 20.1777 70.3318C19.9463 69.3681 19.3883 68.4862 18.6233 67.8601C18.2313 67.5389 17.7849 67.2857 17.3058 67.1251C17.1071 67.057 16.7968 66.9291 16.5845 66.9563C16.1761 67.008 16.4184 67.1877 16.6062 67.4626C18.0245 69.5287 19.1242 71.8153 19.8674 74.2054C20.3492 75.7515 20.6486 77.4093 20.7058 79.0508C20.752 80.3819 20.7847 81.8301 20.4744 83.1312C20.4254 83.3327 20.3628 83.809 20.1042 83.8608C19.7884 83.9234 19.5271 83.3817 19.4264 83.1693C19.0779 82.4371 18.7077 81.7103 18.4056 80.9617C18.1061 80.2158 17.7985 79.4427 17.2922 78.8085C17.2296 80.5507 17.921 82.3228 18.4791 83.937C18.8901 85.1238 19.3011 86.3134 19.606 87.5329C19.8728 88.6027 20.1368 89.8114 20.1641 90.9193C20.1858 91.8121 19.9926 92.7404 19.4509 93.4509C18.9064 94.1668 18.0871 94.5778 17.3902 95.1168C16.677 95.6694 16.0183 96.2928 15.4248 96.9706C13.8868 98.7291 12.8061 100.784 12.4604 103.095C12.1501 105.175 12.2236 107.345 12.7054 109.394C13.0675 110.938 13.6854 112.492 14.7552 113.687C14.9675 113.924 15.1771 114.183 15.4439 114.343C15.9284 114.634 16.5218 115.154 17.02 114.746C17.4964 114.357 16.971 113.769 16.7941 113.298C16.3068 112.013 15.6045 110.821 15.3622 109.43C15.1363 108.142 15.4003 106.765 16.0754 105.63C16.4266 105.042 16.8839 104.519 17.4229 104.097C17.8639 103.754 18.6533 103.169 19.2467 103.245C19.4944 103.278 18.5145 104.778 18.4682 104.857C18.1279 105.412 17.8557 106.008 17.6597 106.626C17.167 108.159 17.1752 109.852 17.6733 111.382C18.3293 113.407 20.6704 116.437 23.1856 115.405C24.5276 114.855 24.9278 113.042 24.4623 111.667C23.9968 110.293 22.9298 109.226 21.9988 108.112C21.0678 106.999 20.2103 105.665 20.3138 104.217C20.3764 103.324 20.8038 102.499 21.2774 101.74C21.6231 101.182 22.0995 100.586 22.7555 100.569C23.5586 100.55 24.0785 101.38 24.4514 102.094C27.9848 108.804 33.8047 114.286 40.7162 117.414C33.8836 117.95 26.8605 118.467 20.3029 116.466C18.3838 115.881 16.5164 115.081 14.5347 114.768C12.9586 114.517 10.8653 114.531 9.50419 115.508C8.24929 116.407 9.02237 118.247 9.80907 119.213C11.6438 121.473 14.4149 122.616 17.2786 122.548C20.752 122.466 24.0785 122.199 27.3342 120.863C30.059 119.744 32.8138 118.549 35.9443 119.088C34.047 119.597 32.1496 120.114 30.2496 120.61C27.1436 121.418 24.6964 123.394 23.9179 126.62C23.5531 128.131 23.7273 129.808 24.6011 131.093C25.7335 132.756 28.0664 133.295 29.9746 133.055C31.3901 132.878 33.037 132.051 34.0497 131.049C34.4308 130.673 34.7275 130.183 34.7656 129.65C34.8064 129.081 34.5533 128.523 34.1912 128.085C33.6522 127.434 32.8982 127.118 32.5443 126.318C32.234 125.616 32.1904 124.804 32.479 124.086C33.1432 122.436 35.7483 121.628 37.2999 121.105C38.9277 120.555 40.6998 120.062 42.4257 119.975C48.8662 119.651 54.0791 122.303 58.6006 126.582C59.1287 127.083 59.4826 127.211 59.8637 127.02V124.516C59.1804 124.981 58.6196 124.761 57.9119 124.143C55.0564 121.649 51.7844 119.632 48.2728 118.203C44.5762 116.698 40.8468 115.536 37.3761 113.499C29.5527 108.91 24.4678 102.486 24.2119 93.0425C23.9179 82.2411 23.6865 71.4397 23.7437 60.6301C23.7818 53.6587 23.5912 46.6873 23.5041 39.7159C23.4905 38.5726 22.4234 37.2034 23.2074 36.414C23.9805 35.6354 25.4314 36.4521 26.5747 36.5555C31.94 37.0482 37.3162 36.8686 42.687 36.8876C48.4116 36.9094 54.139 36.9393 59.8637 36.9611V35.4531C59.3791 35.4776 58.8891 35.4721 58.4073 35.4667C56.7441 35.4476 55.0809 35.4286 53.4149 35.4122C52.6337 35.4041 51.7381 35.3415 51.2644 34.7181C50.8126 34.1219 50.9568 33.2726 51.1991 32.5622C51.5285 31.5985 51.994 30.6812 52.5792 29.8482L52.5901 29.8346ZM56.3712 12.6987C54.9148 11.2642 54.2261 9.03747 54.4874 7.02854C54.5228 6.75088 54.58 6.46778 54.7297 6.23095C54.8794 5.99413 55.1435 5.81174 55.4211 5.82808C55.7233 5.84713 55.971 6.0894 56.0881 6.36978C56.4447 7.22453 56.2677 8.37055 56.2786 9.28519C56.2786 9.8895 56.2949 10.4965 56.3031 11.1008C56.3113 11.5936 56.2024 12.2496 56.3821 12.7096C56.3766 12.7042 56.3739 12.7015 56.3684 12.696L56.3712 12.6987ZM20.8854 110.372C21.1223 110.246 21.4054 110.402 21.615 110.568C22.1376 110.981 23.8526 112.713 22.8535 113.361C22.6167 113.513 22.3037 113.51 22.0451 113.404C21.7865 113.298 21.5741 113.099 21.3945 112.884C21.0134 112.424 20.7602 111.861 20.6677 111.27C20.6568 111.205 20.6486 111.137 20.6432 111.071C20.6187 110.81 20.654 110.497 20.8854 110.374V110.372ZM17.8748 120.438C17.5399 120.653 17.1452 120.751 16.7532 120.816C15.3377 121.053 13.8569 120.895 12.523 120.365C12.1664 120.223 11.8126 120.052 11.5376 119.782C11.2627 119.515 11.0694 119.14 11.0994 118.756C11.1592 118.01 11.9732 117.574 12.7081 117.419C13.0647 117.343 13.4241 117.305 13.7861 117.297C14.7089 117.28 15.6372 117.479 16.4783 117.863C17.4283 118.298 19.4291 119.442 17.8748 120.435V120.438ZM32.6451 128.526C33.018 128.814 33.3446 129.236 33.3256 129.707C33.3011 130.289 32.773 130.717 32.2558 130.986C30.9709 131.659 29.2505 131.972 27.8541 131.474C25.4777 130.624 25.3388 127.638 26.1745 125.624C27.0293 123.566 28.7143 122.368 30.3911 121.015C29.1689 122.001 24.8625 127.758 28.1345 128.302C28.7061 128.398 29.2587 128.098 29.8195 127.951C30.7831 127.698 31.8584 127.916 32.6451 128.526ZM20.7956 39.803C18.2695 35.8151 14.7634 33.6238 9.91523 33.9341C8.10773 34.0484 6.45812 34.533 5.30938 36.0628C4.00276 37.805 4.56351 39.4873 6.63506 40.0943C7.04066 40.2141 7.46803 40.2658 7.86818 40.3992C8.40444 40.5788 9.03598 40.6551 9.15303 41.4036C9.26464 42.1196 8.92437 42.6422 8.44528 43.0859C6.54523 44.8471 2.95473 43.9733 2.07548 41.5479C1.00569 38.5944 2.21976 35.14 4.90923 33.4822C8.56777 31.2256 14.0529 31.7864 18.0109 34.9141C20.5778 36.9421 22.222 39.5853 22.633 42.928C22.0206 41.8855 21.4407 40.8266 20.7929 39.8058L20.7956 39.803ZM23.2237 96.6739C23.5177 97.1121 23.6021 97.8172 23.6348 98.3344C23.6838 99.0966 23.1094 99.9214 22.271 99.7199C21.9824 99.6491 21.713 99.4613 21.4162 99.4885C20.9317 99.5321 20.703 100.085 20.4254 100.482C19.7993 101.38 18.6206 101.672 17.5481 101.895C17.2078 101.966 16.8431 102.034 16.5273 101.889C15.8958 101.598 16.2251 100.417 16.3449 99.8969C16.5164 99.1646 16.8376 98.4677 17.2922 97.8689C18.1769 96.6956 19.5543 95.9225 21.0379 95.9144C21.8001 95.9089 22.7528 95.9715 23.221 96.6684L23.2237 96.6739ZM49.7782 28.6777C49.065 28.5987 48.3844 28.283 47.8509 27.8093C47.4562 27.4609 46.5579 26.4591 47.5242 26.2005C47.7556 26.1379 48.0006 26.176 48.2402 26.1869C51.7027 26.3611 52.9113 22.1364 50.8779 19.7926C49.966 18.7419 48.4525 18.0341 47.0479 18.0804C45.646 18.1267 44.4237 18.9515 43.4737 19.9233C43.1416 20.2636 42.7442 20.6555 42.227 20.4269C41.7261 20.2064 41.737 19.6674 41.7016 19.1801C41.5709 17.3944 42.3985 16.1177 43.8303 15.1813C45.9318 13.8067 49.0595 13.8203 51.2018 15.0915C52.3751 15.7856 53.3169 16.8554 53.8804 18.0967C54.4548 19.3625 54.1608 21.1945 54.0601 22.5583C54.0356 22.8768 54.0084 23.1926 53.9811 23.5111C53.7552 25.9555 52.9059 29.0343 49.7782 28.6831V28.6777Z" fill="black"/>
<path d="M39.1861 134.939C39.3331 133.374 40.3838 132.227 41.7394 132.129C43.9226 131.972 45.3517 130.616 45.319 128.732C45.2809 126.563 44.4969 125.852 41.9463 125.7C41.6822 125.683 41.3801 125.735 41.244 125.463C41.0861 125.142 41.2658 124.831 41.4373 124.567C41.7285 124.11 42.2103 124.072 42.703 124.047C44.4044 123.966 46.1112 123.941 47.8016 123.762C50.1971 123.506 52.2087 124.301 53.9455 125.841C55.2956 127.042 56.5995 128.302 57.8245 129.628C58.5731 130.439 59.1012 130.613 59.8688 129.78V137.179C59.417 137.459 58.8644 137.598 58.3172 137.519C57.2855 137.372 56.9806 136.765 57.0977 135.845C57.8163 135.742 58.7255 137.326 58.8208 135.791C58.9215 134.163 58.0586 132.595 56.6377 131.196C56.2865 132.813 56.3464 134.283 55.5325 135.513C55.0289 136.278 53.9155 136.956 55.1704 138.037C55.9544 138.712 56.4471 139.749 57.7292 139.702C58.437 139.678 59.1665 139.743 59.8661 139.702V151.601C59.3217 149.26 59.7436 146.859 59.5748 144.496C59.5476 144.101 59.7218 143.497 59.1339 143.475C58.5486 143.454 58.652 144.066 58.6085 144.463C58.3989 146.418 58.2056 148.372 58.0042 150.327C57.9606 151.47 58.1757 152.554 58.6983 153.566C58.8426 153.844 59.044 154.168 59.3952 154.149C59.6347 154.135 59.7736 153.975 59.8661 153.779V156.299C59.0903 157.244 58.3281 157.23 57.3917 156.278C56.4988 155.368 55.9 154.198 55.8673 153.016C55.8183 151.163 54.8819 150.833 53.3493 150.86C51.8276 150.888 50.7633 150.041 50.0201 148.764C49.8378 148.451 49.5764 148.07 50.0501 147.804C52.53 146.407 53.7767 143.843 55.6631 141.888C56.0932 141.442 56.2919 140.938 55.9925 140.296C54.4817 137.059 54.0407 136.986 51.6344 139.615C48.4821 143.059 44.5214 143.165 41.1569 139.923C39.7305 138.548 38.9873 136.929 39.1752 134.931L39.1861 134.939ZM53.9019 148.176C53.7685 148.484 53.725 148.895 54.1578 148.92C54.8329 148.958 55.0071 149.671 55.674 149.891C56.1885 147.395 56.6404 144.948 56.8364 142.463C56.6975 142.435 56.5587 142.411 56.4199 142.384C55.5787 144.314 54.7376 146.244 53.9046 148.179L53.9019 148.176ZM40.7867 136.991C42.7085 140.457 46.367 142.199 50.0147 139.052C52.0808 137.269 53.6923 135.208 53.8665 132.342C54.2041 126.832 50.9947 124.369 45.711 126.065C46.132 126.502 47.0548 126.79 48.4794 126.93C48.591 127.33 48.2181 127.48 48.0412 127.706C47.6138 128.256 47.0013 128.904 47.5185 129.505C48.0602 130.137 48.8905 129.636 49.5928 129.44C50.061 129.309 50.3032 128.378 50.8967 128.909C51.4928 129.443 51.2506 130.229 50.9566 130.85C50.2025 132.445 49.3614 133.975 47.4858 134.56C47.0911 134.683 46.3888 134.835 46.6719 135.47C46.9714 136.139 47.6546 135.998 48.2127 135.769C49.13 135.393 49.4485 134.362 50.2461 133.749C50.1671 135.981 48.8033 137.067 46.8271 136.526C45.2129 136.085 43.6803 135.486 42.9099 133.823C42.5479 133.041 42.1069 133.18 41.538 133.597C40.46 134.386 40.0707 135.706 40.7867 136.994V136.991Z" fill="black"/>
<path d="M12.0199 65.7393C11.8566 65.9435 11.3966 65.8917 11.1897 65.8945C9.11542 65.8999 7.04932 66.1503 5.59842 67.7945C4.40885 69.142 4.11486 71.0311 4.84984 72.6726C5.50587 74.1425 6.61378 74.8448 8.21439 74.8911C10.2859 74.951 12.3548 75.0926 14.4236 75.1579C15.5968 75.1933 16.4407 76.1324 16.0759 77.4499C15.9616 77.861 15.5669 78.1305 15.2593 78.4244C14.8074 78.8518 14.3555 79.2792 13.9064 79.7093C13.5307 80.0659 13.1496 80.4252 12.695 80.6757C12.2404 80.9261 11.6987 81.054 11.2006 80.9152C10.7024 80.7764 10.2723 80.3272 10.2669 79.81C10.2587 79.2356 10.7296 78.7702 11.2251 78.4789C11.7205 78.1876 12.2813 77.9916 12.6869 77.5888C13.0925 77.1859 13.2748 76.4618 12.8774 76.0507C12.499 75.6615 11.8539 75.7676 11.334 75.9283C10.6208 76.1515 9.913 76.4291 9.31141 76.8756C8.70982 77.322 8.22256 77.9535 8.07284 78.6858C7.66724 80.6457 9.73879 82.2817 11.5599 82.2409C14.1187 82.1837 16.4026 79.3473 17.2873 77.1695C17.7528 76.0235 17.2383 75.0762 16.7728 74.0091C16.6312 73.6879 16.4815 73.364 16.2474 73.1C16.0133 72.8359 15.6866 72.6399 15.3355 72.6399C14.9843 72.6399 14.625 72.8795 14.5597 73.2252C14.6305 72.8522 14.9952 72.4875 15.0742 72.0683C15.2947 70.8869 14.4862 69.8035 13.8329 68.9051C13.5852 68.5676 13.0925 68.1021 13.0816 67.653C13.0707 67.2038 13.5498 67.0269 13.92 66.8853C15.5097 66.2756 16.9361 65.1894 18.2128 64.0842C18.994 63.4064 19.6719 62.6116 20.219 61.735C20.4912 61.2968 20.807 60.8014 20.9567 60.3059C21.0901 59.8649 20.905 59.5791 20.5021 59.952C19.778 60.6217 19.0675 61.3077 18.3271 61.9583C16.8408 63.2676 15.2484 64.4653 13.4436 65.301C13.2449 64.547 13.675 64.1496 14.0506 63.7358C15.1586 62.5163 16.2746 61.3049 17.3798 60.0827C19.7726 57.4341 20.219 53.6122 18.4768 50.7948C16.751 48.0073 13.0462 46.6272 9.67074 47.5146C6.641 48.3122 4.51501 51.3501 4.2918 54.8453C4.12847 57.415 4.77362 59.5356 6.7635 61.2396C7.70535 62.0454 8.54922 62.96 9.49652 63.7603C9.96745 64.1605 10.4656 64.5334 11.0019 64.8437C11.2523 64.988 12.0499 65.2003 12.0825 65.5134C12.0934 65.6141 12.0689 65.6876 12.0254 65.7447L12.0199 65.7393ZM5.4487 55.5041C5.43782 53.2393 7.2072 50.7213 8.94937 49.695C10.6289 48.7042 12.7876 48.5273 14.5624 49.3357C18.1937 50.9935 19.2526 56.9523 15.3654 58.9802C13.5525 59.9248 10.4329 59.9003 8.51655 59.2906C7.41953 58.9421 6.40962 58.2289 5.8652 57.2136C5.58209 56.6828 5.45415 56.103 5.45143 55.5041H5.4487ZM9.04465 72.6072C7.72713 72.6535 6.40962 72.1989 6.21907 70.7644C6.11291 69.9641 6.54028 69.1692 7.13915 68.6275C8.76427 67.1575 11.2278 67.4978 12.627 69.0984C12.8856 69.3951 13.1142 69.7599 13.0952 70.1519C13.0489 71.1509 11.7804 71.826 10.991 72.1772C10.4547 72.414 9.74968 72.5827 9.04465 72.6072Z" fill="black"/>
<path d="M18.4734 87.7371C16.7856 89.4248 15.0952 91.1152 13.4047 92.8029C12.1825 94.0252 10.8895 95.0242 9.01939 95.1059C8.02853 95.1494 6.86618 95.4652 6.69197 96.6684C6.53136 97.76 7.36161 98.5222 8.18369 99.1374C9.11739 99.8315 10.228 100 11.355 99.9975C12.3703 99.9975 12.8658 99.1782 12.8086 98.4187C12.7405 97.5014 11.9021 98.1519 11.3985 98.1138C11.1345 98.0948 10.8351 98.1601 10.6146 98.0539C10.081 97.8008 9.11194 97.9042 9.20177 97.0685C9.26711 96.4506 10.0837 96.6847 10.5765 96.6384C11.3414 96.5677 12.0845 96.3472 12.648 95.8844C15.3021 93.7094 17.2892 91.0145 18.4761 87.7371H18.4734Z" fill="black"/>
<path d="M47.7587 146.736C49.2994 146.728 50.5462 146.459 51.3955 145.228C51.6568 144.85 51.8392 144.439 51.586 144.061C51.3574 143.718 50.9137 143.867 50.5516 143.919C49.7159 144.039 48.883 144.153 48.05 144.281C47.0727 144.433 46.1663 144.349 45.3687 143.666C45.0584 143.399 44.6609 143.051 44.239 143.342C43.7762 143.66 43.9096 144.221 44.0376 144.657C44.4159 145.947 45.5184 146.363 46.6699 146.652C47.0727 146.753 47.511 146.717 47.7614 146.734L47.7587 146.736Z" fill="black"/>
<path d="M59.9149 39.4741C59.7897 39.4741 59.6672 39.4741 59.542 39.4741V39.4904C49.3149 39.4904 39.0879 39.5149 28.8608 39.4605C27.5733 39.4551 27.3174 39.8797 27.3174 41.0203C27.3446 56.9938 27.331 72.9645 27.3255 88.938C27.3255 91.3362 27.4099 93.7317 27.8346 96.0972C29.0459 102.851 33.1019 107.582 39.2213 110.609C43.9333 112.939 48.8413 114.888 53.635 117.066C55.5105 117.918 57.3289 118.895 59.1337 119.883C59.4032 120.03 59.6618 120.131 59.9149 120.191V39.4741ZM30.6547 40.9332C39.5697 40.9985 48.4847 41.0067 57.3997 40.9577C58.7608 40.9495 59.2616 41.1618 59.2535 42.659C59.1854 53.572 59.2045 64.4878 59.2643 75.4008C59.2725 76.6802 59.0139 77.113 57.5902 77.1076C48.5119 77.0613 39.4309 77.0994 30.3526 77.1702C29.1766 77.1784 29.0323 76.7456 29.0405 75.7683C29.084 70.2315 29.0623 64.6947 29.0623 59.1579C29.0514 59.1579 29.0405 59.1579 29.0269 59.1579C29.0269 53.621 29.0595 48.0842 29.0024 42.5474C28.9888 41.3116 29.3345 40.925 30.6574 40.9332H30.6547ZM59.4903 79.7562C59.0602 85.9219 59.3596 92.0957 59.3515 98.264C59.3515 104.487 59.3515 110.71 59.3569 116.932C59.3569 117.243 59.5311 117.654 59.1473 117.76C58.905 117.828 58.5566 117.618 58.2817 117.482C57.22 116.946 56.1856 116.355 55.1104 115.849C50.0499 113.475 44.7009 111.69 39.8065 109.006C34.5474 106.123 30.4996 102.214 29.5495 95.9829C28.7084 90.4733 29.1385 84.9392 28.9507 79.4187C28.9207 78.5721 29.3481 78.5912 30.0667 78.5912C39.5207 78.6102 48.9774 78.6102 58.4314 78.5177C59.6237 78.5068 59.542 79.0349 59.493 79.7508L59.4903 79.7562Z" fill="black"/>
<path d="M12.237 51.6768C11.5102 51.4781 10.7289 51.5598 10.0729 52.0879C9.30526 52.7058 8.98677 53.8028 9.24809 54.7447C9.53664 55.7818 10.7834 56.3589 11.7797 56.4079C12.4765 56.4433 13.1952 56.2745 13.7505 55.8499C15.5498 54.4752 14.069 52.1804 12.2343 51.6768H12.237ZM11.4503 55.1693C11.3278 55.1775 11.2053 55.1666 11.091 55.1285C10.2471 54.8672 10.4077 53.9144 10.9494 53.4353C11.2461 53.1713 11.9893 52.8555 12.3459 53.1631C12.4384 53.2421 12.4929 53.3618 12.5174 53.4816C12.5745 53.7484 12.5555 54.0587 12.4684 54.3173C12.3758 54.5977 12.1907 54.8508 11.9403 55.006C11.7933 55.0986 11.6218 55.153 11.4503 55.1666V55.1693Z" fill="black"/>
<path d="M59.8876 26.1436C60.9354 26.1436 61.7849 25.02 61.7849 23.6338C61.7849 22.2477 60.9354 21.124 59.8876 21.124C58.8397 21.124 57.9902 22.2477 57.9902 23.6338C57.9902 25.02 58.8397 26.1436 59.8876 26.1436Z" fill="black"/>
<path d="M34.0469 52.5314V51.7393C35.3181 51.8046 36.4968 51.8373 37.5884 51.8373C38.6799 51.8373 39.7933 51.8046 40.8849 51.7393V52.5314C39.9648 52.5477 39.404 52.5913 39.2026 52.6621C39.0012 52.7328 38.8623 52.8281 38.7943 52.9533C38.6936 53.1194 38.6309 53.5195 38.6064 54.1538C38.5983 54.3198 38.5819 55.4904 38.5602 57.6708V62.2549C38.5602 64.0297 38.6663 65.2002 38.8814 65.7664C39.0964 66.3326 39.4367 66.8008 39.9049 67.1738C40.2642 67.4541 40.746 67.6801 41.3531 67.8488C41.9601 68.0176 42.6379 68.102 43.3865 68.102C44.2603 68.102 45.0334 67.9877 45.7112 67.7617C46.389 67.5358 46.8981 67.2581 47.2356 66.9315C47.5759 66.6048 47.829 66.2401 47.9951 65.8345C48.1639 65.4289 48.2836 64.8736 48.3571 64.1685C48.4306 63.4635 48.4687 62.5679 48.4687 61.4872V57.6708C48.4687 56.5465 48.4524 55.4495 48.4225 54.377C48.4061 53.593 48.3544 53.1275 48.2646 52.9833C48.1747 52.839 48.0278 52.7328 47.8263 52.6621C47.6249 52.5913 47.0614 52.5477 46.144 52.5314V51.7393C47.4289 51.8046 48.368 51.8373 48.9614 51.8373C49.4977 51.8373 50.4695 51.8046 51.8714 51.7393V52.5314C50.9432 52.5477 50.3824 52.5913 50.1837 52.6621C49.985 52.7328 49.8461 52.8281 49.7699 52.9533C49.6774 53.1194 49.6175 53.5195 49.5957 54.1538C49.5875 54.3198 49.5712 55.4904 49.5494 57.6708V61.8193C49.5494 63.8582 49.416 65.2846 49.1466 66.0931C48.8771 66.9015 48.3844 67.6175 47.6684 68.2354C47.1295 68.6981 46.438 69.0575 45.5942 69.3134C44.7476 69.5692 43.8112 69.6972 42.7822 69.6972C41.5817 69.6972 40.5419 69.5475 39.6626 69.2453C38.7807 68.9431 38.111 68.5484 37.6537 68.0557C37.1937 67.5657 36.8779 67.0621 36.7064 66.5504C36.4886 65.8726 36.3797 64.7374 36.3797 63.145V57.6708C36.3797 56.5465 36.3689 55.4495 36.3444 54.377C36.3199 53.593 36.2654 53.1275 36.1756 52.9833C36.0858 52.839 35.9415 52.7328 35.7428 52.6621C35.544 52.5913 34.9806 52.5477 34.055 52.5314H34.0469Z" fill="black"/>
<path d="M84.2917 67.1497L83.8371 68.2848C82.9252 68.7639 82.0324 69.1123 81.1613 69.3274C80.2875 69.5424 79.3375 69.6513 78.3085 69.6513C77.0999 69.6513 75.9783 69.4934 74.9412 69.175C73.9041 68.8565 73.0003 68.4046 72.2245 67.8139C71.4487 67.2232 70.8172 66.5644 70.3245 65.8322C69.8345 65.0999 69.4588 64.3051 69.203 63.4476C68.9471 62.5901 68.8164 61.6482 68.8164 60.622C68.8164 58.0278 69.682 55.8773 71.416 54.1733C73.15 52.4692 75.5156 51.6172 78.5154 51.6172C79.2231 51.6172 79.8819 51.6607 80.4835 51.7451C81.0878 51.8295 81.8228 51.9928 82.6911 52.2324C83.5595 52.4719 84.093 52.6135 84.2863 52.6543C84.1148 53.1007 83.9869 53.5417 83.8997 53.9718C83.7745 54.6633 83.6901 55.4636 83.6439 56.3755H82.9062L82.8953 54.9355C82.8163 54.1379 82.3944 53.5445 81.6268 53.1552C80.8591 52.7659 79.7349 52.5699 78.254 52.5699C77.1489 52.5863 76.2097 52.736 75.4366 53.0164C74.6663 53.2967 73.9857 53.7405 73.3978 54.3475C72.8098 54.9545 72.328 55.7222 71.955 56.6531C71.5821 57.5841 71.3888 58.7546 71.3834 60.162C71.3834 62.6255 72.1048 64.6099 73.5448 66.1098C74.9875 67.6097 76.8903 68.361 79.2585 68.361C80.3256 68.361 81.3164 68.2059 82.2284 67.8983C82.8517 67.6859 83.4724 67.3538 84.0876 66.8965L84.2863 67.1524L84.2917 67.1497Z" fill="black"/>
<path d="M43.7815 104.775C43.5474 104.062 43.0602 102.681 42.3198 100.64L38.3454 90.2876C37.9235 89.1879 37.6622 88.5509 37.5615 88.3794C37.4907 88.2732 37.3927 88.1943 37.2702 88.1453C37.0987 88.0636 36.6713 87.9983 35.9854 87.9493V87.1626C37.3954 87.2279 38.4353 87.2606 39.1049 87.2606C39.7364 87.2606 40.8062 87.2279 42.3198 87.1626V88.0364C41.3697 88.0527 40.8171 88.0745 40.6647 88.099C40.5123 88.1235 40.4088 88.1698 40.3489 88.2406C40.289 88.3113 40.2618 88.3903 40.2618 88.4801C40.2618 88.5699 40.3163 88.785 40.4252 89.1198C40.76 90.2114 41.0512 91.0906 41.3017 91.7548L44.9602 101.478L48.0117 93.4153C48.4554 92.2584 48.8801 90.9981 49.2857 89.637C49.4572 89.0545 49.5416 88.6924 49.5416 88.5536C49.5416 88.3576 49.4409 88.2242 49.2367 88.1589C49.0815 88.1017 48.4799 88.031 47.4374 87.9493V87.1626C48.6133 87.2116 49.498 87.2361 50.0915 87.2361C50.6849 87.2361 51.5369 87.2116 52.604 87.1626V87.9493C52.0105 87.9738 51.6567 88.0146 51.5396 88.0718C51.4226 88.129 51.3137 88.2433 51.213 88.4175C51.1422 88.54 50.8536 89.2042 50.3473 90.4128L46.6997 99.8668L45.7986 102.292C45.6108 102.777 45.4584 103.196 45.344 103.547C45.2297 103.898 45.0991 104.309 44.9575 104.778H43.7761L43.7815 104.775Z" fill="black"/>
<path d="M65.2371 105.14V104.348C66.0564 104.34 66.5927 104.271 66.8513 104.146C66.9602 104.097 67.0391 104.016 67.0854 103.907C67.1644 103.738 67.2188 103.3 67.2487 102.586C67.295 101.481 67.3195 100.526 67.3195 99.7201V89.4767C67.3195 89.199 67.3032 89.0194 67.2732 88.935C67.2106 88.7853 67.0718 88.6029 66.8513 88.3933C66.7098 88.2599 66.5491 88.1728 66.3668 88.1347C66.1844 88.0966 65.7761 88.0748 65.1445 88.0666V87.2745C66.4457 87.3071 67.2651 87.3235 67.5999 87.3235C68.1688 87.3235 68.7323 87.3071 69.2958 87.2745C69.9573 88.2055 70.4445 88.8914 70.7576 89.3351L73.1776 92.5391L76.7082 97.1123C77.8378 98.5713 78.7443 99.7174 79.4303 100.556C79.8658 101.108 80.2333 101.544 80.53 101.862V92.6752C80.53 91.8531 80.5028 90.8895 80.4484 89.7843C80.4184 89.0901 80.3667 88.6573 80.2959 88.4886C80.2415 88.3797 80.1598 88.3007 80.0509 88.249C79.7951 88.132 79.2588 88.0694 78.4503 88.0612V87.269C79.3704 87.3017 80.3014 87.318 81.2432 87.318C82.1306 87.318 82.9391 87.3017 83.6632 87.269V88.0612C82.852 88.0694 82.3185 88.132 82.0626 88.249C81.9537 88.298 81.8748 88.3824 81.8285 88.4994C81.7495 88.6573 81.6951 89.0983 81.6652 89.8197C81.6189 90.9249 81.5944 91.8776 81.5944 92.6725V98.7183C81.5944 99.9406 81.6134 102.224 81.6543 105.567L80.4511 105.189L80.1707 105.126C80.1244 105.11 80.0809 105.085 80.0428 105.05C79.9883 105.009 79.8386 104.84 79.5991 104.546C78.9512 103.76 78.4775 103.164 78.1727 102.761L76.6646 100.711L68.3784 90.0674V99.7065C68.3784 100.529 68.4056 101.495 68.4601 102.608C68.49 103.302 68.5418 103.73 68.6125 103.89C68.667 104.007 68.7486 104.092 68.8575 104.141C69.1134 104.258 69.6469 104.32 70.4581 104.329V105.121C69.7722 105.061 69.0154 105.034 68.1906 105.034C67.2869 105.034 66.3042 105.064 65.2452 105.121L65.2371 105.14Z" fill="black"/>
</svg>
