<svg viewBox="0 0 14.9055 19.267" fill="none" xmlns="http://www.w3.org/2000/svg" xmlns:xlink="http://www.w3.org/1999/xlink" x="0" y="0"><g id="Group 98">
<path id="Vector_22" d="M13.188,6.76h-0.898v-3.87c0,-1.6 -1.295,-2.89 -2.886,-2.89h-3.903c-1.591,0 -2.885,1.29 -2.885,2.89v3.87h-0.899c-0.947,0 -1.717,0.77 -1.717,1.71v9.08c0,0.95 0.77,1.72 1.717,1.72h11.471c0.947,0 1.717,-0.77 1.717,-1.72v-9.08c0,-0.94 -0.77,-1.71 -1.717,-1.71zM3.761,2.89c0,-0.96 0.78,-1.75 1.74,-1.75h3.903c0.96,0 1.741,0.79 1.741,1.75v3.87h-0.983v-3.44c0,-0.73 -0.591,-1.32 -1.317,-1.32h-2.785c-0.726,0 -1.316,0.59 -1.316,1.32v3.44h-0.983zM5.888,6.76v-3.44c0,-0.1 0.077,-0.17 0.172,-0.17h2.785c0.095,0 0.172,0.07 0.172,0.17v3.44zM13.761,17.55c0,0.32 -0.257,0.57 -0.573,0.57h-11.471c-0.316,0 -0.572,-0.25 -0.572,-0.57v-9.08c0,-0.31 0.256,-0.57 0.572,-0.57c1.414,0 8.437,0 11.471,0c0.316,0 0.573,0.26 0.573,0.57z" fill="black"/>
<path id="Vector_23" d="M7.452,9.18c-1.295,0 -2.35,1.06 -2.35,2.35c0,0.72 0.334,1.4 0.889,1.84v2.34c0,0.81 0.656,1.47 1.461,1.47c0.806,0 1.462,-0.66 1.462,-1.47v-2.34c0.555,-0.44 0.889,-1.12 0.889,-1.84c0,-1.29 -1.055,-2.35 -2.351,-2.35zM7.769,13.07v2.64c0,0.18 -0.142,0.32 -0.317,0.32c-0.174,0 -0.316,-0.14 -0.316,-0.32v-2.64c0,-0.2 -0.109,-0.39 -0.286,-0.5c-0.372,-0.21 -0.603,-0.61 -0.603,-1.04c0,-0.66 0.541,-1.2 1.205,-1.2c0.665,0 1.206,0.54 1.206,1.2c0,0.43 -0.231,0.83 -0.603,1.04c-0.177,0.11 -0.286,0.3 -0.286,0.5z" fill="black"/>
</g></svg>